<svg width="22" height="20" viewBox="0 0 26 26" fill="none" xmlns="http://www.w3.org/2000/svg">
<g clip-path="url(#clip0_223_103)">
<path d="M4.875 17.0625V16.25H3.25V17.0625C3.25 18.5709 3.84922 20.0176 4.91583 21.0842C5.98244 22.1508 7.42908 22.75 8.9375 22.75H11.375V21.125H8.9375C7.86006 21.125 6.82675 20.697 6.06488 19.9351C5.30301 19.1733 4.875 18.1399 4.875 17.0625Z" fill="url(#paint0_linear_223_103)"/>
<path d="M19.5 8.9375V9.75H21.125V8.9375C21.125 7.42908 20.5258 5.98244 19.4592 4.91583C18.3926 3.84922 16.9459 3.25 15.4375 3.25H13V4.875H15.4375C15.971 4.875 16.4993 4.98008 16.9922 5.18424C17.485 5.3884 17.9329 5.68764 18.3101 6.06488C18.6874 6.44212 18.9866 6.88996 19.1908 7.38285C19.3949 7.87573 19.5 8.40401 19.5 8.9375Z" fill="url(#paint1_linear_223_103)"/>
<path d="M8.9375 8.9375H4.0625C3.41603 8.9375 2.79605 9.19431 2.33893 9.65143C1.88181 10.1085 1.625 10.7285 1.625 11.375V13H3.25V11.375C3.25 11.1595 3.3356 10.9528 3.48798 10.8005C3.64035 10.6481 3.84701 10.5625 4.0625 10.5625H8.9375C9.15299 10.5625 9.35965 10.6481 9.51202 10.8005C9.6644 10.9528 9.75 11.1595 9.75 11.375V13H11.375V11.375C11.375 10.7285 11.1182 10.1085 10.6611 9.65143C10.204 9.19431 9.58397 8.9375 8.9375 8.9375Z" fill="url(#paint2_linear_223_103)"/>
<path d="M6.5 8.125C7.14279 8.125 7.77114 7.93439 8.3056 7.57728C8.84006 7.22016 9.25662 6.71258 9.50261 6.11872C9.74859 5.52486 9.81295 4.8714 9.68755 4.24096C9.56215 3.61052 9.25262 3.03143 8.7981 2.5769C8.34358 2.12238 7.76448 1.81285 7.13404 1.68745C6.50361 1.56205 5.85014 1.62641 5.25628 1.87239C4.66242 2.11838 4.15484 2.53494 3.79772 3.0694C3.44061 3.60386 3.25 4.23221 3.25 4.875C3.25 5.73696 3.59241 6.56361 4.2019 7.1731C4.8114 7.78259 5.63805 8.125 6.5 8.125ZM6.5 3.25C6.82139 3.25 7.13557 3.34531 7.4028 3.52386C7.67003 3.70242 7.87831 3.95621 8.0013 4.25314C8.1243 4.55007 8.15648 4.8768 8.09378 5.19202C8.03108 5.50724 7.87631 5.79679 7.64905 6.02405C7.42179 6.25131 7.13224 6.40608 6.81702 6.46878C6.5018 6.53148 6.17507 6.4993 5.87814 6.37631C5.58121 6.25331 5.32742 6.04503 5.14886 5.7778C4.9703 5.51057 4.875 5.1964 4.875 4.875C4.875 4.44403 5.0462 4.0307 5.35095 3.72595C5.6557 3.42121 6.06902 3.25 6.5 3.25Z" fill="url(#paint3_linear_223_103)"/>
<path d="M21.9375 20.3125H17.0625C16.416 20.3125 15.796 20.5693 15.3389 21.0264C14.8818 21.4835 14.625 22.1035 14.625 22.75V24.375H16.25V22.75C16.25 22.5345 16.3356 22.3278 16.488 22.1755C16.6403 22.0231 16.847 21.9375 17.0625 21.9375H21.9375C22.153 21.9375 22.3597 22.0231 22.512 22.1755C22.6644 22.3278 22.75 22.5345 22.75 22.75V24.375H24.375V22.75C24.375 22.1035 24.1182 21.4835 23.6611 21.0264C23.204 20.5693 22.584 20.3125 21.9375 20.3125Z" fill="url(#paint4_linear_223_103)"/>
<path d="M16.25 16.25C16.25 16.8928 16.4406 17.5211 16.7977 18.0556C17.1548 18.5901 17.6624 19.0066 18.2563 19.2526C18.8501 19.4986 19.5036 19.563 20.134 19.4376C20.7645 19.3122 21.3436 19.0026 21.7981 18.5481C22.2526 18.0936 22.5622 17.5145 22.6876 16.884C22.813 16.2536 22.7486 15.6001 22.5026 15.0063C22.2566 14.4124 21.8401 13.9048 21.3056 13.5477C20.7711 13.1906 20.1428 13 19.5 13C18.638 13 17.8114 13.3424 17.2019 13.9519C16.5924 14.5614 16.25 15.388 16.25 16.25ZM21.125 16.25C21.125 16.5714 21.0297 16.8856 20.8511 17.1528C20.6726 17.42 20.4188 17.6283 20.1219 17.7513C19.8249 17.8743 19.4982 17.9065 19.183 17.8438C18.8678 17.7811 18.5782 17.6263 18.351 17.399C18.1237 17.1718 17.9689 16.8822 17.9062 16.567C17.8435 16.2518 17.8757 15.9251 17.9987 15.6281C18.1217 15.3312 18.33 15.0774 18.5972 14.8989C18.8644 14.7203 19.1786 14.625 19.5 14.625C19.931 14.625 20.3443 14.7962 20.649 15.101C20.9538 15.4057 21.125 15.819 21.125 16.25Z" fill="url(#paint5_linear_223_103)"/>
</g>
<defs>
<linearGradient id="paint0_linear_223_103" x1="7.3125" y1="16.25" x2="7.3125" y2="22.75" gradientUnits="userSpaceOnUse">
<stop stop-color="#FF0202"/>
<stop offset="1" stop-color="#FFADAD"/>
</linearGradient>
<linearGradient id="paint1_linear_223_103" x1="17.0625" y1="3.25" x2="17.0625" y2="9.75" gradientUnits="userSpaceOnUse">
<stop stop-color="#FF0202"/>
<stop offset="1" stop-color="#FFADAD"/>
</linearGradient>
<linearGradient id="paint2_linear_223_103" x1="6.5" y1="8.9375" x2="6.5" y2="13" gradientUnits="userSpaceOnUse">
<stop stop-color="#FF0202"/>
<stop offset="1" stop-color="#FFADAD"/>
</linearGradient>
<linearGradient id="paint3_linear_223_103" x1="6.5" y1="1.625" x2="6.5" y2="8.125" gradientUnits="userSpaceOnUse">
<stop stop-color="#FF0202"/>
<stop offset="1" stop-color="#FFADAD"/>
</linearGradient>
<linearGradient id="paint4_linear_223_103" x1="19.5" y1="20.3125" x2="19.5" y2="24.375" gradientUnits="userSpaceOnUse">
<stop stop-color="#FF0202"/>
<stop offset="1" stop-color="#FFADAD"/>
</linearGradient>
<linearGradient id="paint5_linear_223_103" x1="19.5" y1="13" x2="19.5" y2="19.5" gradientUnits="userSpaceOnUse">
<stop stop-color="#FF0202"/>
<stop offset="1" stop-color="#FFADAD"/>
</linearGradient>
<clipPath id="clip0_223_103">
<rect width="26" height="26" fill="white"/>
</clipPath>
</defs>
</svg>
