<svg width="20" height="22" viewBox="0 0 147 144" fill="none" xmlns="http://www.w3.org/2000/svg">
<g clip-path="url(#clip0_223_103)">
<path d="M27.5625 94.5V90H18.375V94.5C18.375 102.854 21.7629 110.866 27.7933 116.774C33.8238 122.681 42.0029 126 50.5312 126H64.3125V117H50.5312C44.4396 117 38.5974 114.629 34.2899 110.41C29.9824 106.19 27.5625 100.467 27.5625 94.5Z" fill="url(#paint0_linear_223_103)"/>
<path d="M110.25 49.5V54H119.438V49.5C119.438 41.1457 116.05 33.1335 110.019 27.2261C103.989 21.3187 95.8096 18 87.2812 18H73.5V27H87.2812C90.2975 27 93.2843 27.582 96.071 28.7127C98.8577 29.8434 101.39 31.5008 103.523 33.5901C105.655 35.6794 107.347 38.1598 108.502 40.8896C109.656 43.6194 110.25 46.5453 110.25 49.5Z" fill="url(#paint1_linear_223_103)"/>
<path d="M50.5312 49.5H22.9688C19.3137 49.5 15.8084 50.9223 13.2239 53.4541C10.6394 55.9858 9.1875 59.4196 9.1875 63V72H18.375V63C18.375 61.8065 18.859 60.6619 19.7205 59.818C20.582 58.9741 21.7504 58.5 22.9688 58.5H50.5312C51.7496 58.5 52.918 58.9741 53.7795 59.818C54.641 60.6619 55.125 61.8065 55.125 63V72H64.3125V63C64.3125 59.4196 62.8606 55.9858 60.2761 53.4541C57.6916 50.9223 54.1863 49.5 50.5312 49.5Z" fill="url(#paint2_linear_223_103)"/>
<path d="M36.75 45C40.3842 45 43.9368 43.9443 46.9586 41.9665C49.9804 39.9886 52.3355 37.1774 53.7263 33.8883C55.1171 30.5992 55.4809 26.98 54.7719 23.4884C54.0629 19.9967 52.3129 16.7894 49.7431 14.2721C47.1733 11.7547 43.8992 10.0404 40.3348 9.34587C36.7704 8.65134 33.0758 9.0078 29.7182 10.3702C26.3606 11.7326 23.4908 14.0397 21.4717 16.9997C19.4527 19.9598 18.375 23.4399 18.375 27C18.375 31.7739 20.3109 36.3523 23.7569 39.7279C27.2029 43.1036 31.8766 45 36.75 45ZM36.75 18C38.5671 18 40.3434 18.5279 41.8543 19.5168C43.3652 20.5057 44.5428 21.9113 45.2381 23.5559C45.9335 25.2004 46.1155 27.01 45.761 28.7558C45.4065 30.5017 44.5314 32.1053 43.2465 33.364C41.9616 34.6226 40.3246 35.4798 38.5424 35.8271C36.7602 36.1743 34.9129 35.9961 33.2341 35.3149C31.5553 34.6337 30.1204 33.4802 29.1109 32.0001C28.1013 30.5201 27.5625 28.78 27.5625 27C27.5625 24.6131 28.5305 22.3239 30.2535 20.636C31.9764 18.9482 34.3133 18 36.75 18Z" fill="url(#paint3_linear_223_103)"/>
<path d="M124.031 112.5H96.4688C92.8137 112.5 89.3084 113.922 86.7239 116.454C84.1394 118.986 82.6875 122.42 82.6875 126V135H91.875V126C91.875 124.807 92.359 123.662 93.2205 122.818C94.082 121.974 95.2504 121.5 96.4688 121.5H124.031C125.25 121.5 126.418 121.974 127.28 122.818C128.141 123.662 128.625 124.807 128.625 126V135H137.812V126C137.812 122.42 136.361 118.986 133.776 116.454C131.192 113.922 127.686 112.5 124.031 112.5Z" fill="url(#paint4_linear_223_103)"/>
<path d="M91.875 90C91.875 93.5601 92.9527 97.0402 94.9717 100C96.9908 102.96 99.8606 105.267 103.218 106.63C106.576 107.992 110.27 108.349 113.835 107.654C117.399 106.96 120.673 105.245 123.243 102.728C125.813 100.211 127.563 97.0033 128.272 93.5116C128.981 90.02 128.617 86.4008 127.226 83.1117C125.836 79.8226 123.48 77.0114 120.459 75.0335C117.437 73.0557 113.884 72 110.25 72C105.377 72 100.703 73.8964 97.2569 77.2721C93.8109 80.6477 91.875 85.2261 91.875 90ZM119.438 90C119.438 91.78 118.899 93.5201 117.889 95.0001C116.88 96.4802 115.445 97.6337 113.766 98.3149C112.087 98.9961 110.24 99.1743 108.458 98.8271C106.675 98.4798 105.038 97.6226 103.753 96.364C102.469 95.1053 101.594 93.5016 101.239 91.7558C100.885 90.01 101.066 88.2004 101.762 86.5558C102.457 84.9113 103.635 83.5057 105.146 82.5168C106.657 81.5278 108.433 81 110.25 81C112.687 81 115.024 81.9482 116.747 83.636C118.47 85.3239 119.438 87.6131 119.438 90Z" fill="url(#paint5_linear_223_103)"/>
</g>
<defs>
<linearGradient id="paint0_linear_223_103" x1="41.3438" y1="90" x2="41.3438" y2="126" gradientUnits="userSpaceOnUse">
<stop stop-color="#FF0202"/>
<stop offset="1" stop-color="#FF7D7D"/>
</linearGradient>
<linearGradient id="paint1_linear_223_103" x1="96.4688" y1="18" x2="96.4688" y2="54" gradientUnits="userSpaceOnUse">
<stop stop-color="#FF0202"/>
<stop offset="1" stop-color="#FF7D7D"/>
</linearGradient>
<linearGradient id="paint2_linear_223_103" x1="36.75" y1="49.5" x2="36.75" y2="72" gradientUnits="userSpaceOnUse">
<stop stop-color="#FF0202"/>
<stop offset="1" stop-color="#FF7D7D"/>
</linearGradient>
<linearGradient id="paint3_linear_223_103" x1="36.75" y1="9" x2="36.75" y2="45" gradientUnits="userSpaceOnUse">
<stop stop-color="#FF0202"/>
<stop offset="1" stop-color="#FF7D7D"/>
</linearGradient>
<linearGradient id="paint4_linear_223_103" x1="110.25" y1="112.5" x2="110.25" y2="135" gradientUnits="userSpaceOnUse">
<stop stop-color="#FF0202"/>
<stop offset="1" stop-color="#FF7D7D"/>
</linearGradient>
<linearGradient id="paint5_linear_223_103" x1="110.25" y1="72" x2="110.25" y2="108" gradientUnits="userSpaceOnUse">
<stop stop-color="#FF0202"/>
<stop offset="1" stop-color="#FF7D7D"/>
</linearGradient>
<clipPath id="clip0_223_103">
<rect width="147" height="144" fill="white"/>
</clipPath>
</defs>
</svg>
